<svg id="Layer_1" data-name="Layer 1" xmlns="http://www.w3.org/2000/svg" viewBox="0 0 39.72 39.72"><defs><style>.cls-1{fill:#f2f2f2;}.cls-2{fill:#212121;}</style></defs><title>icon</title><circle class="cls-1" cx="19.86" cy="19.86" r="16.96"/><path class="cls-2" d="M53.55,50.61l-3.13,3.13A3.56,3.56,0,0,0,53.55,50.61Z" transform="translate(-30.14 -30.14)"/><path class="cls-2" d="M50,30.14A19.86,19.86,0,1,0,69.86,50,19.88,19.88,0,0,0,50,30.14Zm-14.28,20s5-8.66,14.28-8.66a14.35,14.35,0,0,1,4.76.8l-1.32,1.33A7.28,7.28,0,0,0,50,42.8a7.39,7.39,0,0,0-6.53,10.83l-2.31,2.3A20.37,20.37,0,0,1,35.72,50.19ZM49.53,48a1.56,1.56,0,0,1-2.87.85,3.5,3.5,0,0,0-.26,1.3,3.26,3.26,0,0,0,.05.45L45.3,51.79A4.92,4.92,0,0,1,50,45.2a5,5,0,0,1,1.6.29l-1.16,1.16a3.12,3.12,0,0,0-.44,0,3.4,3.4,0,0,0-1.11.19A1.54,1.54,0,0,1,49.53,48ZM50,58.85a14.32,14.32,0,0,1-4.09-.6l-2.53,2.54L41.61,59l1.77-1.77L45,55.62l1.71-1.71,1-1L50.62,50l2-2,6.05-6,1.77,1.77-1.1,1.09a20.52,20.52,0,0,1,4.94,5.37S59.28,58.85,50,58.85Z" transform="translate(-30.14 -30.14)"/><path class="cls-2" d="M54.9,49.27a4.63,4.63,0,0,1,.09.92,5,5,0,0,1-5,5,5.52,5.52,0,0,1-.92-.08L47.16,57a7.28,7.28,0,0,0,2.84.58,7.4,7.4,0,0,0,7.38-7.39,7.27,7.27,0,0,0-.57-2.84Z" transform="translate(-30.14 -30.14)"/></svg>